<?xml version="1.0" standalone="no"?>
<!DOCTYPE svg PUBLIC "-//W3C//DTD SVG 20010904//EN"
 "http://www.w3.org/TR/2001/REC-SVG-20010904/DTD/svg10.dtd">
<svg version="1.0" xmlns="http://www.w3.org/2000/svg"
 width="120px" height="25px" viewBox="0 0 139 25"
 preserveAspectRatio="xMidYMid meet">
<metadata>
Created by potrace 1.16, written by Peter Selinger 2001-2019
</metadata>
<g transform="translate(0.000000,320.000000) scale(0.100000,-0.100000)"
fill="#000000" stroke="none">
<path d="M1885 2392 c-286 -115 -551 -225 -590 -244 -38 -20 -135 -86 -214
-148 -164 -127 -211 -156 -290 -182 -87 -29 -125 -60 -170 -137 -28 -46 -93
-123 -199 -233 -215 -223 -259 -287 -342 -500 -47 -119 -56 -159 -41 -186 15
-29 45 -32 88 -10 38 21 499 344 606 425 38 30 57 39 57 29 0 -8 10 -27 23
-41 l22 -27 154 27 c186 33 211 41 443 149 138 64 195 86 226 86 63 0 284 -76
351 -121 60 -40 112 -100 201 -234 67 -101 85 -123 173 -213 122 -125 254
-200 394 -224 98 -16 136 -6 193 52 62 64 130 194 130 249 0 57 -23 77 -171
152 -68 34 -136 70 -151 80 -37 27 -44 68 -19 118 27 51 27 101 0 152 -26 52
-47 61 -314 139 -328 96 -357 116 -370 254 -7 80 -2 110 24 140 21 24 30 27
251 92 102 30 241 79 310 108 179 76 161 75 212 14 138 -167 221 -199 278
-106 40 66 25 99 -129 283 -212 253 -223 260 -347 220 -97 -30 -130 -32 -144
-5 -14 25 -61 50 -97 50 -15 0 -262 -94 -548 -208z m616 113 c22 -19 47 -35
57 -35 9 0 56 12 104 26 52 16 96 24 111 20 23 -5 143 -137 290 -319 52 -65
60 -102 27 -132 -28 -25 -55 -11 -116 61 -96 113 -120 134 -152 134 -17 0 -88
-24 -159 -54 -70 -30 -204 -78 -298 -106 -277 -83 -301 -95 -330 -156 -14 -30
-17 -55 -13 -128 10 -186 47 -213 434 -326 115 -34 219 -67 231 -75 11 -8 26
-30 33 -49 10 -30 8 -42 -9 -82 -27 -60 -27 -123 -1 -157 11 -14 85 -58 163
-98 161 -81 177 -93 177 -126 0 -30 -70 -152 -117 -204 -45 -49 -78 -55 -174
-30 -202 52 -337 163 -511 418 -91 134 -171 221 -238 257 -60 33 -262 102
-325 111 -55 9 -83 0 -278 -92 -221 -103 -239 -110 -403 -139 -154 -28 -163
-27 -164 17 0 25 -27 42 -53 35 -13 -3 -52 -27 -88 -54 -35 -27 -165 -121
-289 -209 -321 -228 -320 -227 -320 -202 0 32 108 279 150 342 26 41 125 155
219 253 109 114 181 199 200 234 40 75 65 96 148 124 85 29 135 60 318 200
163 125 194 141 600 304 584 235 680 272 709 272 19 0 42 -12 67 -35z"/>
</g>
</svg>
